<svg width="36" height="36" viewBox="0 0 36 36" fill="none" xmlns="http://www.w3.org/2000/svg">
<path d="M0 18C0 8.05888 8.05888 0 18 0C27.9411 0 36 8.05888 36 18C36 27.9411 27.9411 36 18 36C8.05888 36 0 27.9411 0 18Z" fill="#F40013"/>
<mask id="mask0_1_2241" style="mask-type:alpha" maskUnits="userSpaceOnUse" x="6" y="6" width="24" height="24">
<rect x="6" y="6" width="24" height="24" fill="#D9D9D9"/>
</mask>
<g mask="url(#mask0_1_2241)">
<path d="M18 19.0634L14.7538 22.3096C14.6089 22.4545 14.4333 22.5253 14.2269 22.5221C14.0205 22.5189 13.8449 22.4449 13.7 22.3C13.5551 22.1551 13.4827 21.9779 13.4827 21.7683C13.4827 21.5587 13.5551 21.3814 13.7 21.2366L16.9366 18L13.6904 14.7788C13.5455 14.634 13.4747 14.4567 13.4779 14.2471C13.4811 14.0375 13.5551 13.8602 13.7 13.7154C13.8449 13.5705 14.0221 13.4981 14.2317 13.4981C14.4413 13.4981 14.6185 13.5705 14.7634 13.7154L18 16.9616L21.2212 13.7154C21.366 13.5705 21.5417 13.4981 21.7481 13.4981C21.9545 13.4981 22.1301 13.5705 22.275 13.7154C22.4301 13.8705 22.5077 14.0503 22.5077 14.2548C22.5077 14.4593 22.4301 14.634 22.275 14.7788L19.0384 18L22.2846 21.2462C22.4295 21.391 22.5019 21.5667 22.5019 21.7731C22.5019 21.9795 22.4295 22.1551 22.2846 22.3C22.1295 22.4551 21.9497 22.5327 21.7452 22.5327C21.5407 22.5327 21.366 22.4551 21.2212 22.3L18 19.0634Z" fill="white"/>
</g>
</svg>
