<svg width="36" height="36" viewBox="0 0 36 36" fill="none" xmlns="http://www.w3.org/2000/svg">
<path d="M0 18C0 8.05887 8.05887 0 18 0V0C27.9411 0 36 8.05887 36 18V18C36 27.9411 27.9411 36 18 36V36C8.05887 36 0 27.9411 0 18V18Z" fill="white"/>
<mask id="mask0_1_2893" style="mask-type:alpha" maskUnits="userSpaceOnUse" x="6" y="6" width="24" height="24">
<rect x="6" y="6" width="24" height="24" fill="#D9D9D9"/>
</mask>
<g mask="url(#mask0_1_2893)">
<path d="M18 23C18.2833 23 18.5208 22.9042 18.7125 22.7125C18.9042 22.5208 19 22.2833 19 22V18C19 17.7167 18.9042 17.4792 18.7125 17.2875C18.5208 17.0958 18.2833 17 18 17C17.7167 17 17.4792 17.0958 17.2875 17.2875C17.0958 17.4792 17 17.7167 17 18V22C17 22.2833 17.0958 22.5208 17.2875 22.7125C17.4792 22.9042 17.7167 23 18 23ZM18 15C18.2833 15 18.5208 14.9042 18.7125 14.7125C18.9042 14.5208 19 14.2833 19 14C19 13.7167 18.9042 13.4792 18.7125 13.2875C18.5208 13.0958 18.2833 13 18 13C17.7167 13 17.4792 13.0958 17.2875 13.2875C17.0958 13.4792 17 13.7167 17 14C17 14.2833 17.0958 14.5208 17.2875 14.7125C17.4792 14.9042 17.7167 15 18 15ZM18 28C16.6167 28 15.3167 27.7375 14.1 27.2125C12.8833 26.6875 11.825 25.975 10.925 25.075C10.025 24.175 9.3125 23.1167 8.7875 21.9C8.2625 20.6833 8 19.3833 8 18C8 16.6167 8.2625 15.3167 8.7875 14.1C9.3125 12.8833 10.025 11.825 10.925 10.925C11.825 10.025 12.8833 9.3125 14.1 8.7875C15.3167 8.2625 16.6167 8 18 8C19.3833 8 20.6833 8.2625 21.9 8.7875C23.1167 9.3125 24.175 10.025 25.075 10.925C25.975 11.825 26.6875 12.8833 27.2125 14.1C27.7375 15.3167 28 16.6167 28 18C28 19.3833 27.7375 20.6833 27.2125 21.9C26.6875 23.1167 25.975 24.175 25.075 25.075C24.175 25.975 23.1167 26.6875 21.9 27.2125C20.6833 27.7375 19.3833 28 18 28ZM18 26C20.2333 26 22.125 25.225 23.675 23.675C25.225 22.125 26 20.2333 26 18C26 15.7667 25.225 13.875 23.675 12.325C22.125 10.775 20.2333 10 18 10C15.7667 10 13.875 10.775 12.325 12.325C10.775 13.875 10 15.7667 10 18C10 20.2333 10.775 22.125 12.325 23.675C13.875 25.225 15.7667 26 18 26Z" fill="#1C1B1F"/>
</g>
</svg>
