<svg width="36" height="36" viewBox="0 0 36 36" fill="none" xmlns="http://www.w3.org/2000/svg">
<path d="M0 18C0 8.05887 8.05887 0 18 0V0C27.9411 0 36 8.05887 36 18V18C36 27.9411 27.9411 36 18 36V36C8.05887 36 0 27.9411 0 18V18Z" fill="#1ED926"/>
<mask id="mask0_1_2888" style="mask-type:alpha" maskUnits="userSpaceOnUse" x="6" y="6" width="24" height="24">
<rect x="6" y="6" width="24" height="24" fill="#D9D9D9"/>
</mask>
<g mask="url(#mask0_1_2888)">
<path d="M16 19.9558L22.0731 13.8731C22.211 13.7346 22.3865 13.6654 22.5996 13.6654C22.8127 13.6654 22.9885 13.7344 23.1269 13.8724C23.2654 14.0104 23.3346 14.186 23.3346 14.3993C23.3346 14.6126 23.2654 14.7885 23.1269 14.9269L16.6327 21.4115C16.4519 21.5923 16.241 21.6827 16 21.6827C15.759 21.6827 15.5481 21.5923 15.3673 21.4115L12.8731 18.9269C12.7346 18.789 12.6654 18.6135 12.6654 18.4004C12.6654 18.1873 12.7344 18.0116 12.8724 17.8731C13.0104 17.7346 13.186 17.6654 13.3993 17.6654C13.6126 17.6654 13.7885 17.7346 13.9269 17.8731L16 19.9558Z" fill="white"/>
</g>
</svg>
