<svg width="213" height="34" viewBox="0 0 213 34" fill="none" xmlns="http://www.w3.org/2000/svg">
<path fill-rule="evenodd" clip-rule="evenodd" d="M124.202 7.29648L124.195 7.29316C124.99 6.4273 125.871 5.5077 126.792 4.62295C125.671 4.07751 124.635 3.45925 123.633 2.86115C121.461 1.56517 119.449 0.36383 117.066 0.20306C115.218 0.088957 113.368 0.394003 111.656 1.09529C111.656 1.09529 110.729 -0.158914 107.878 0.247513C105.026 0.65394 96.2418 4.31496 88.7562 16.2538C81.9898 27.0463 85.1693 33.2348 90.0293 33.1681C95.2966 33.0951 100.306 27.2527 102.006 22.4359C103.705 17.6191 101.7 16.3141 100.16 16.4379C98.457 16.5808 95.4494 18.0922 93.7944 21.4325C92.1394 24.7728 92.1394 26.8304 92.1394 26.8304C92.8157 26.1224 93.5515 25.4734 94.3386 24.8903C95.0471 24.3384 95.8276 23.8855 96.6588 23.544C96.8533 22.6809 97.1426 21.8419 97.5213 21.042C98.1196 19.7973 99.0681 18.5018 100.239 18.2097C102.617 17.6159 101.477 21.9406 99.7301 24.7601C98.7912 26.2652 95.4589 30.6184 92.5977 30.6184C89.7364 30.6184 89.189 27.8687 89.7906 25.2872C90.3921 22.7058 91.2291 19.4417 95.4112 13.4977C99.5932 7.55367 104.116 4.02919 106.735 2.55272C109.425 1.03179 110.519 1.69858 110.519 1.69858C110.519 1.69858 107.085 3.80057 105.131 6.34074C103.266 8.7666 102.149 11.4941 103.015 12.8309C103.842 14.1041 106.748 14.1295 109.953 9.51913C113.116 4.96588 112.321 2.25742 112.321 2.25742C112.529 2.18986 112.742 2.13682 112.957 2.09866C114.501 1.89227 115.736 2.30187 117.645 3.27984C118.577 3.75694 119.491 4.36804 120.467 5.02074C121.588 5.7699 122.79 6.57407 124.195 7.29316L124.192 7.29648H124.202ZM111.239 2.60987C111.239 2.60987 109.202 3.41955 106.834 6.02322C104.466 8.62689 103.085 11.5576 104.106 12.3324C104.498 12.6277 105.402 12.6785 107.044 11.2052C108.558 9.8931 109.747 8.24868 110.516 6.40107C111.515 3.97013 111.273 2.77835 111.242 2.62613C111.24 2.61691 111.239 2.6115 111.239 2.60987Z" fill="white"/>
<path d="M128.328 8.7713L128.326 8.77295C133.89 9.87158 138.762 6.43282 141.353 3.50528C142.299 2.45762 143.112 1.29853 143.775 0.0538255C142.595 1.27931 141.275 2.36209 139.841 3.27984L139.825 3.27666C137.413 4.81982 134.074 6.22008 130.866 5.91209C130.055 6.75034 129.186 7.71878 128.32 8.76978L128.328 8.7713Z" fill="white"/>
<path fill-rule="evenodd" clip-rule="evenodd" d="M130.287 28.4974C129.825 29.234 129.3 30.647 130.825 29.7674C132.68 28.6974 135.325 24.6871 135.325 24.6871H136.522C135.431 26.363 134.216 27.9551 132.887 29.4499C131.006 31.5297 128.712 33.4189 127.095 33.2316C125.207 33.0125 125.799 30.539 125.799 30.539C125.799 30.539 123.088 33.3967 121.226 33.203C118.702 32.9236 119.472 29.8119 119.472 29.8119C119.472 29.8119 116.608 33.3046 114.673 33.1998C111.624 33.0252 112.391 29.3134 113.237 26.7161C113.692 25.3222 114.113 24.2267 114.113 24.2267C114.113 24.2267 113.81 24.3061 113.158 24.4013C112.817 24.449 112.203 24.4839 112.203 24.4839C111.503 25.715 110.74 26.9094 109.918 28.0624C108.903 29.4086 104.59 34.0349 102.044 33.1078C99.6951 32.2505 100.472 28.6625 101.84 25.8048C103.836 21.6484 109.45 15.6759 112.687 16.4601C116.044 17.273 112.763 23.3821 112.763 23.3821C112.763 23.3821 112.763 23.4043 112.798 23.4202C113.01 23.4584 113.228 23.4464 113.435 23.3853C113.854 23.3005 114.265 23.1783 114.663 23.0201C114.663 23.0201 118.037 15.9712 121.764 11.3608C125.491 6.75034 132.935 -1.18133 135.854 0.739671C136.566 1.21278 136.242 2.83849 135.281 4.81347C134.848 4.95013 134.408 5.06459 133.963 5.15639C134.496 4.27446 134.899 3.32059 135.16 2.3241C135.599 -0.0573068 130.023 4.9627 126.038 10.3669C123.642 13.6225 121.513 17.0662 119.673 20.6641C120.393 20.2276 121.08 19.7395 121.729 19.2035C123.506 17.7328 125.196 16.1594 126.789 14.4915C128.318 12.9204 129.752 11.26 131.083 9.51913C131.509 9.49913 131.934 9.45567 132.356 9.38894C130.899 11.3598 129.312 13.231 127.604 14.99C127.463 15.1304 127.322 15.2719 127.179 15.4142C125.711 16.8815 124.162 18.4288 122.798 19.575C121.467 20.7111 120.062 21.7591 118.594 22.7121C118.594 22.7121 115.093 29.723 117.002 30.1739C118.116 30.4406 120.319 27.059 120.319 27.059C120.319 27.059 123.183 22.6867 124.921 20.7086C127.27 18.0414 129.304 16.5046 131.325 16.4633C132.508 16.4411 133.206 17.7016 133.206 17.7016L133.762 16.8412H137.19C137.19 16.8412 130.79 27.675 130.277 28.491L130.287 28.4974ZM132.435 18.9146C132.477 18.841 132.511 18.7633 132.537 18.6828C132.521 18.5559 132.461 18.4384 132.369 18.35C132.276 18.2616 132.156 18.2076 132.028 18.197C131.5 18.1716 130.774 18.2732 128.88 20.3656C127.307 22.0982 125.953 24.0179 124.851 26.081C123.766 28.0592 123.326 29.5325 123.95 29.9135C124.153 30.0173 124.387 30.0411 124.606 29.9802C125.029 29.8786 125.507 29.4849 126.235 28.6434C126.508 28.3281 126.805 27.9069 127.145 27.4254L127.148 27.4209C127.232 27.3026 127.318 27.1807 127.407 27.0558C128.661 25.3539 131.811 19.9942 132.435 18.9114V18.9146ZM112.747 21.188C113.066 20.3625 113.467 18.7431 112.629 18.1081C111.729 17.4318 109.447 19.0162 109.425 20.6482C109.402 22.2803 111.038 23.0646 111.43 23.1694C111.652 23.2297 111.729 23.2202 111.837 23.0423C112.183 22.4482 112.487 21.8307 112.747 21.1944V21.188ZM111.013 24.2204C110.445 23.9584 109.915 23.6208 109.437 23.217C108.957 22.8165 108.554 22.3311 108.25 21.785C108.224 21.7403 108.197 21.7695 108.169 21.8007C108.163 21.8072 108.158 21.8138 108.151 21.8199L108.151 21.8205C108.115 21.8563 107.973 21.998 106.751 23.7822C105.523 25.5762 103.651 29.2721 105.351 29.904C106.439 30.3072 108.25 28.4053 109.243 27.1447C109.915 26.2655 110.525 25.3403 111.067 24.3759C111.118 24.268 111.067 24.2426 111.013 24.2204Z" fill="white"/>
<path d="M91.7161 8.59514H88.457L86.6142 11.5671H89.8733L91.7161 8.59514Z" fill="white"/>
<path fill-rule="evenodd" clip-rule="evenodd" d="M84.0649 16.7269H85.2489C85.2489 16.7269 79.2654 25.3539 75.8822 24.9602C73.9949 24.7411 74.5551 22.42 74.5551 22.42C74.5551 22.42 71.8975 25.5158 69.4628 24.8967C67.254 24.3315 68.6798 20.6705 68.6798 20.6705C68.6422 20.6857 68.5034 20.8188 68.2832 21.0298C67.0312 22.2301 63.149 25.9517 60.2935 24.8554C56.7925 23.5028 58.6035 19.0035 59.2718 17.6508C59.8383 16.5109 60.4653 15.3996 60.4653 15.3996C60.4653 15.3996 59.9274 15.552 59.5901 15.6282C59.2527 15.7044 58.7467 15.8029 58.7467 15.8029C58.7467 15.8029 57.0853 18.4986 56.07 19.8417C55.0548 21.1849 50.7359 25.808 48.1929 24.8871C45.6499 23.9663 46.2833 20.4165 47.7091 17.5842C50.0261 13.0119 55.5258 7.39174 58.8485 8.23634C62.1712 9.08095 59.4246 14.501 59.4246 14.501C59.4246 14.501 60.0898 14.5868 61.6843 13.5008C62.3428 13.0538 63.0608 12.3903 63.8268 11.6825C65.7373 9.91702 67.9466 7.87551 70.2775 8.22682C71.8179 8.45861 73.2533 10.0367 71.2896 13.0309C70.6531 13.9835 69.606 14.8535 68.7976 14.0025C68.2947 13.4786 68.7339 12.5102 69.2623 11.8497C69.4688 11.5806 69.7385 11.3663 70.0477 11.2256C70.3568 11.085 70.6959 11.0223 71.035 11.0432C71.035 11.0432 71.5761 9.80172 70.198 9.82712C69.0808 9.84935 66.2546 12.4435 64.6601 15.0662C63.2152 17.4826 61.0032 21.5849 63.2152 22.4803C65.2553 23.3027 69.1381 18.705 70.9363 16.295C72.7346 13.885 76.8275 8.42368 80.2648 8.20459C81.4487 8.12839 82.1521 9.20478 82.1521 9.20478L82.55 8.56974H85.9809C85.9809 8.56974 79.52 19.3623 79.014 20.172C78.6162 20.807 78.0878 22.2454 79.5519 21.442C81.0159 20.6387 84.0649 16.7269 84.0649 16.7269ZM76.2832 18.8765C77.6709 16.9713 81.4965 10.3352 81.4965 10.3352C81.4802 10.2083 81.4207 10.0908 81.328 10.0024C81.2353 9.91396 81.115 9.85994 80.9873 9.84935C80.4589 9.82395 79.5805 10.0018 77.8046 12.1927C76.0286 14.3836 74.7046 16.1267 73.718 17.9398C72.6295 19.9179 72.1553 21.315 72.7791 21.6929C72.9819 21.7951 73.2154 21.8189 73.4347 21.7596C73.8421 21.658 74.3736 21.2515 75.1025 20.4133C75.4462 20.0227 75.8345 19.4956 76.2896 18.8765H76.2832ZM58.8008 9.89063C57.9001 9.21113 55.6181 10.7987 55.5958 12.4308C55.5735 14.0629 57.6646 14.5709 57.9351 14.5836C57.9955 14.5995 58.0594 14.595 58.1169 14.5709C58.1745 14.5468 58.2225 14.5043 58.2534 14.4502C58.4982 13.9718 58.7181 13.4811 58.9122 12.9801C59.2304 12.1546 59.6283 10.5352 58.7912 9.90015L58.8008 9.89063ZM57.4322 15.6155C56.8113 15.4218 56.2177 15.1497 55.6658 14.8059C55.1276 14.4591 54.6889 13.9787 54.3928 13.4119C54.365 13.3649 54.3349 13.3998 54.3065 13.4327C54.3023 13.4376 54.2982 13.4424 54.2941 13.4469C54.2623 13.4818 54.0777 13.7231 52.8523 15.5171C51.627 17.3111 49.8097 20.9816 51.5124 21.6103C52.6009 22.0136 54.431 20.1053 55.4208 18.8447C56.1666 17.8608 56.8562 16.8357 57.4863 15.7743C57.5277 15.6663 57.4863 15.6409 57.4259 15.6219L57.4322 15.6155Z" fill="white"/>
<path d="M82.1935 34C79.6624 32.2523 76.6317 31.37 73.5557 31.4852C72.723 31.5076 71.9074 31.7258 71.1752 32.1219C70.443 32.5181 69.8148 33.081 69.3418 33.765C68.0306 31.4821 65.4398 30.0818 61.4329 30.1135C58.0403 30.1518 54.6608 30.988 51.4809 31.7749C48.593 32.4894 45.8697 33.1633 43.4507 33.1617C38.5685 33.1617 35.0134 30.1008 35.1312 24.6681C35.3412 15.1424 43.4061 6.56936 49.4532 2.70195C52.9192 0.479304 55.8186 -0.17479 57.7282 0.0379494C59.1127 0.19036 60.7772 1.78749 59.7269 4.14032C58.1833 7.58543 56.0509 7.29648 56.1305 5.65172C56.1637 5.22265 56.2984 4.80755 56.5236 4.4405C56.7487 4.07344 57.058 3.7649 57.4259 3.54021C57.8163 3.32818 58.2544 3.21891 58.6989 3.22269C59.0172 2.96549 59.2368 1.08259 56.7543 1.70176C54.2718 2.32093 51.2483 4.75631 48.3966 7.89977C45.5449 11.0432 41.1082 16.9809 40.0102 23.217C39.4978 26.1096 39.8384 31.3836 46.6939 31.3265C49.337 31.3048 52.5529 30.5049 56.0158 29.6435C60.1794 28.6078 64.6999 27.4833 69.0108 27.5162C71.7604 27.5047 74.461 28.2425 76.8211 29.65C78.8644 30.92 81.3119 32.7363 82.1808 33.9873L82.1935 34Z" fill="white"/>
<path d="M19.7336 21.6484H26.6146L26.3886 20.0862H21.5223V18.1811H24.8005V16.5935H21.5223V14.9741H26.2963L26.5255 13.4119H19.7368L19.7336 21.6484Z" fill="white"/>
<path d="M9.54905 21.6484H11.3377V18.0065H15.5516V21.6453H17.3466V13.4373H15.5548V16.4125H11.3377V13.4342H9.5586L9.54905 21.6484Z" fill="white"/>
<path d="M0.516602 15.0376H3.26007V21.6389H5.05511V15.0376H7.79858V13.431H0.516602V15.0376Z" fill="white"/>
<path d="M210.507 13.4564H212.483L209.228 18.905V21.6643H207.433V18.94L204.145 13.4532H206.166L208.346 17.2952L210.507 13.4564Z" fill="white"/>
<path d="M200.988 19.013V13.4564L202.735 13.4469V21.6548H200.93L196.936 15.9997V21.6548H195.189V13.4469H197.047L200.988 19.013Z" fill="white"/>
<path fill-rule="evenodd" clip-rule="evenodd" d="M193.617 21.658H191.729L191.045 19.8259H187.433L186.748 21.6484H184.874L188.149 13.4437H190.354L193.617 21.658ZM189.25 15.0281L188.018 18.2827L190.472 18.2795L189.25 15.0281Z" fill="white"/>
<path fill-rule="evenodd" clip-rule="evenodd" d="M177.735 13.4405H181.965C182.515 13.4228 183.061 13.5383 183.556 13.7771C183.969 13.9808 184.31 14.3039 184.536 14.7042C184.754 15.1157 184.868 15.574 184.868 16.0394C184.868 16.5048 184.754 16.9631 184.536 17.3746C184.309 17.7753 183.968 18.1001 183.556 18.3081C183.061 18.548 182.515 18.6646 181.965 18.6479H179.53V21.6453H177.735V13.4405ZM179.543 17.0634H181.933C182.234 17.083 182.532 16.9864 182.764 16.7935C182.955 16.5889 183.062 16.3194 183.062 16.0394C183.062 15.7595 182.955 15.4899 182.764 15.2853C182.528 15.0976 182.231 15.0037 181.93 15.0218H179.543V17.0634Z" fill="white"/>
<path d="M172.939 13.4405H175.348L175.351 21.6516H173.613V15.6187L171.086 21.5246H169.886L167.388 15.7679V21.6389H165.65V13.4405H168.06L170.523 19.1559L172.939 13.4405Z" fill="white"/>
<path d="M159.299 20.1625C159.3 20.1624 159.3 20.1624 159.301 20.1624H159.298C159.298 20.1624 159.299 20.1624 159.299 20.1625Z" fill="white"/>
<path fill-rule="evenodd" clip-rule="evenodd" d="M161.567 21.242C160.868 21.6094 160.088 21.7951 159.298 21.7818L159.288 21.785C158.498 21.7974 157.718 21.6118 157.019 21.2452C156.366 20.8972 155.825 20.3735 155.456 19.7338C155.085 19.0596 154.89 18.3027 154.89 17.5334C154.89 16.764 155.085 16.0071 155.456 15.3329C155.826 14.6931 156.369 14.1695 157.022 13.8215C157.725 13.4656 158.503 13.2801 159.291 13.2801C160.08 13.2801 160.857 13.4656 161.561 13.8215C162.223 14.1656 162.775 14.6895 163.152 15.3329C163.522 16.0069 163.717 16.7631 163.717 17.5318C163.717 18.3004 163.522 19.0567 163.152 19.7306C162.777 20.3731 162.227 20.897 161.567 21.242ZM157.993 19.8259C158.39 20.0532 158.841 20.1695 159.299 20.1625C159.757 20.1725 160.21 20.056 160.606 19.8259C160.988 19.6062 161.3 19.2838 161.506 18.8955C161.72 18.473 161.831 18.0065 161.831 17.5334C161.831 17.0602 161.72 16.5937 161.506 16.1712C161.302 15.7799 160.989 15.4549 160.606 15.2345C160.206 15.0149 159.757 14.8998 159.301 14.8998C158.845 14.8998 158.396 15.0149 157.996 15.2345C157.614 15.4489 157.3 15.7657 157.089 16.149C156.868 16.5684 156.758 17.0374 156.771 17.5111C156.76 17.9847 156.87 18.4532 157.089 18.8733C157.294 19.2693 157.608 19.5994 157.993 19.8259Z" fill="white"/>
<path d="M152.531 21.4674C151.928 21.6844 151.291 21.792 150.65 21.785L150.66 21.7945C149.828 21.8092 149.006 21.6183 148.267 21.2388C147.585 20.8892 147.013 20.359 146.614 19.7065C146.215 19.0539 146.004 18.3042 146.004 17.5397C146.004 16.7752 146.215 16.0255 146.614 15.373C147.013 14.7204 147.585 14.1902 148.267 13.8406C148.997 13.4651 149.809 13.2753 150.631 13.2881C151.273 13.2767 151.91 13.3843 152.512 13.6056C153.057 13.8042 153.542 14.1374 153.922 14.5741L152.805 15.8124C152.52 15.5156 152.181 15.2762 151.806 15.1075C151.449 14.9583 151.066 14.8827 150.679 14.8852C150.183 14.8787 149.693 14.9989 149.256 15.2345C148.843 15.4565 148.498 15.7856 148.257 16.1871C148.005 16.5919 147.874 17.06 147.878 17.5365C147.872 18.0063 147.996 18.4687 148.237 18.8723C148.478 19.2759 148.826 19.6049 149.244 19.8227C149.687 20.0603 150.185 20.1805 150.689 20.172C151.091 20.1787 151.49 20.1023 151.862 19.9477C152.233 19.793 152.568 19.5635 152.846 19.2734L153.967 20.4926C153.58 20.9351 153.086 21.2708 152.531 21.4674Z" fill="white"/>
</svg>
